<svg xmlns="http://www.w3.org/2000/svg" viewBox="0 0 34 30"><defs><style>.cls-1{fill:#511de5;}</style></defs><g id="Layer_2" data-name="Layer 2"><g id="Effciency"><g id="Featured_text" data-name="Featured text"><g id="Shape_1" data-name="Shape 1"><path class="cls-1" d="M33.2,28.39H.8A.81.81,0,0,0,.8,30H33.2a.81.81,0,0,0,0-1.61ZM2.9,25.48H31.1a.81.81,0,0,0,.81-.81v-20a.81.81,0,0,0-.81-.81H25.46a.8.8,0,0,0-.8.81V10.1h-4V.81a.8.8,0,0,0-.8-.81H14.18a.8.8,0,0,0-.8.81V16.08h-4V9.22a.8.8,0,0,0-.8-.81H2.9a.81.81,0,0,0-.81.81V24.67A.81.81,0,0,0,2.9,25.48ZM26.27,5.42h4V23.86h-4Zm-5.65,6.3h4V23.86h-4ZM15,1.61h4V23.86H15ZM9.34,17.69h4v6.17h-4ZM3.7,10h4V23.86h-4Z"/></g></g></g></g></svg>