<svg version="1.2" xmlns="http://www.w3.org/2000/svg" viewBox="0 0 36 29" width="36" height="29"><style>.s0{fill:#0c8afb}</style><path class="s0" d="m36 17.9c0 4.2-3.4 7.7-7.6 7.7h-6.2c-0.5 0-0.8-0.4-0.8-0.8c0-0.4 0.3-0.8 0.8-0.8h6.2c3.4 0 6.1-2.8 6.1-6.1c0-3.4-2.7-6.2-6.1-6.2q-0.3 0-0.6 0q-0.3 0.1-0.6-0.2c-0.2-0.1-0.2-0.4-0.2-0.6v-0.1q0-0.3 0-0.5c0-4.8-3.8-8.7-8.5-8.7c-2.1 0-4.1 0.7-5.7 2.1c-1.5 1.4-2.5 3.3-2.8 5.4c0 0.4-0.4 0.7-0.8 0.7q-0.4-0.1-0.7-0.1c-3.8 0-7 3.2-7 7.2c0 3.9 3.2 7.1 7 7.1h6c0.4 0 0.8 0.4 0.8 0.8c0 0.4-0.4 0.8-0.8 0.8h-6c-4.7 0-8.5-3.9-8.5-8.7c0-4.8 3.8-8.7 8.5-8.7q0.1 0 0.1 0c0.5-2.2 1.6-4.2 3.2-5.6c1.9-1.7 4.2-2.6 6.7-2.6c5.5 0 10 4.5 10 10.1c4.2 0.1 7.5 3.5 7.5 7.8zm-16.8-13.4c0 0.4-0.3 0.7-0.7 0.7c-2.5 0-4.6 1.9-4.9 4.4c0 0.4-0.4 0.7-0.8 0.7q0 0-0.1 0c-0.4-0.1-0.7-0.5-0.6-0.9c0.4-3.3 3.2-5.7 6.4-5.7c0.4 0 0.7 0.3 0.7 0.8zm2.8 15.7q-0.2 0.3-0.5 0.3q-0.3 0-0.6-0.2l-1.8-1.7v9.6c0 0.4-0.3 0.8-0.8 0.8c-0.4 0-0.7-0.4-0.7-0.8v-9.6l-1.9 1.7c-0.3 0.3-0.8 0.2-1.1-0.1c-0.3-0.3-0.2-0.8 0.1-1.1l2.8-2.6c0.5-0.4 1.2-0.4 1.7 0l2.8 2.6c0.3 0.3 0.3 0.8 0 1.1z" /></svg>