<svg version="1.2" xmlns="http://www.w3.org/2000/svg" viewBox="0 0 494 463" width="494" height="463"><defs><linearGradient id="P" gradientUnits="userSpaceOnUse"/><linearGradient id="g1" x1="537.6" y1="268.2" x2="240.7" y2="268.2" href="#P"><stop stop-color="#009dff"/><stop offset="1" stop-color="#501ce4"/></linearGradient></defs><style>.s0{opacity: .1;fill:#0000ff}.s1{fill:url(#g1)}</style><path class="s0" d="m194.7 111.4c31.7-6.4 58-32.6 83.1-56.3c12.5-12.1 24.6-23.5 36.5-32.6c11.8-9.2 23.5-16.2 35-19.5c22.9-7.1 45.4 0.6 66.2 23.4c20.6 22.3 39.5 59.8 52.8 101.7c13.4 40.4 20 86.1 19.4 120c-0.4 34.7-8 57.5-21.6 72.2c-27.1 28.8-77.8 29.5-137.7 84.2c-29.8 23.7-58.9 48.2-82.9 55.5c-24.3 8.1-43.5-1-60.4-23.6c-17.1-22.3-33.6-55.5-56.5-88c-11.4-16.4-24.2-32.7-38-48.9c-6.9-8.1-14-16.2-21.2-24.4q-5.4-6.1-10.7-12.3q-5.3-6.2-10.6-12.5q-1.2-1.5-2.5-3.1q-1.2-1.5-2.5-3.1q-2.4-3-4.8-6.1q-4.7-6.1-9-12.3c-5.7-8.1-10.7-16.2-14.7-24.2c-8.2-16-12.7-31.6-13.5-45.2c-1.6-27.8 10-46.8 27.8-52.6q0.8-0.3 1.7-0.6q0.9-0.3 1.7-0.5q1.8-0.5 3.6-0.8q3.7-0.7 7.8-0.9c5.3-0.2 11.1 0.1 17.2 0.9c12.3 1.4 26.1 4.6 40.9 8c29.6 6.4 62.9 14 92.9 1.6z" /><path class="s1" d="m237.2 96.3c32.1 3.5 65-13.5 96.1-28.6c15.6-7.7 30.6-14.9 44.7-20.1c14-5.2 27.2-8.3 39.2-8c24 0.2 43.2 14.2 56.1 42.2c13 27.5 19.7 69 19.7 113c0.6 42.5-6.9 88.1-17.6 120.2c-10.9 33-25.1 52.5-42.4 62.4c-34.5 19.3-83.1 4.6-156.7 38.8c-35.5 13.6-70.7 28.2-95.8 27.8c-25.6 0.5-41.1-14-50.4-40.7c-9.6-26.3-15.3-62.9-27.4-100.9c-5.9-19-13.2-38.4-21.5-58.1c-4.1-9.8-8.5-19.6-12.8-29.6q-3.3-7.4-6.5-14.9q-3.3-7.6-6.3-15.2q-0.8-1.8-1.5-3.7q-0.8-1.8-1.5-3.6q-1.4-3.7-2.7-7.3q-2.7-7.3-4.9-14.4c-3-9.5-5.3-18.8-6.7-27.6c-3-17.7-2.6-34 0.8-47.2c6.8-27 23.6-41.5 42.3-41.8q0.9 0 1.8 0q0.9 0 1.8 0q1.8 0.1 3.7 0.4q3.7 0.4 7.6 1.5c5.2 1.3 10.6 3.4 16.2 6c11.3 5.1 23.5 12.2 36.6 20c26.3 14.9 55.7 32.3 88.1 29.4z" /></svg>