<svg version="1.2" xmlns="http://www.w3.org/2000/svg" viewBox="0 0 255 174" width="255" height="174"><style>.s0{fill:#f2f2f2}</style><path class="s0" d="m56.8 63.3c30.6 0 55.5 24.8 55.5 55.3c0 30.6-24.9 55.4-55.5 55.4c-30.7 0-55.6-24.8-55.6-55.4l-0.2-7.9c0-61.1 49.7-110.7 111-110.7v31.6c-21.2 0-41.1 8.3-56.1 23.2q-4.3 4.3-7.8 9.2q4.2-0.7 8.7-0.7zm142.7 0c30.6 0 55.5 24.8 55.5 55.3c0 30.6-24.9 55.4-55.5 55.4c-30.7 0-55.5-24.8-55.5-55.4l-0.3-7.9c0-61.1 49.7-110.7 111.1-110.7v31.6c-21.2 0-41.1 8.3-56.1 23.2q-4.3 4.3-7.9 9.2q4.2-0.7 8.7-0.7z" /></svg>